<?xml version="1.0" standalone="no"?>
<!DOCTYPE svg PUBLIC "-//W3C//DTD SVG 20010904//EN"
 "http://www.w3.org/TR/2001/REC-SVG-20010904/DTD/svg10.dtd">
<svg version="1.0" xmlns="http://www.w3.org/2000/svg"
 width="618.000000pt" height="216.000000pt" viewBox="0 0 618.000000 216.000000"
 preserveAspectRatio="xMidYMid meet">
<metadata>
Created by potrace 1.10, written by Peter Selinger 2001-2011
</metadata>
<g transform="translate(0.000000,216.000000) scale(0.100000,-0.100000)"
fill="#000000" stroke="none">
<path d="M1515 2049 c-22 -6 -71 -14 -110 -18 -38 -5 -97 -13 -130 -19 -124
-22 -202 -34 -265 -42 -36 -4 -96 -13 -135 -19 -38 -7 -115 -18 -170 -27 -55
-8 -140 -21 -190 -29 -49 -8 -135 -21 -190 -29 -326 -49 -310 -45 -308 -85 2
-53 13 -57 100 -38 43 9 91 17 107 17 16 0 65 7 110 15 125 22 215 36 286 45
71 9 161 23 286 45 45 8 95 15 110 15 16 0 65 7 109 15 44 8 127 21 185 30
170 25 291 48 295 56 8 12 -25 79 -38 78 -6 -1 -30 -5 -52 -10z"/>
<path d="M1293 1824 c-8 -3 -13 -23 -13 -47 0 -23 -7 -82 -16 -132 -22 -116
-31 -125 -134 -125 -42 0 -144 -6 -226 -14 -82 -8 -207 -17 -279 -21 -71 -4
-141 -8 -154 -8 -31 -2 -50 49 -59 163 l-7 85 -40 0 -40 0 0 -90 c1 -110 24
-195 80 -294 29 -51 145 -156 205 -184 8 -4 35 -18 59 -32 24 -14 47 -25 51
-25 4 0 28 -9 53 -20 30 -13 44 -25 41 -34 -3 -8 -45 -46 -94 -85 -137 -111
-219 -209 -277 -331 -50 -107 -59 -140 -79 -285 -11 -85 -10 -84 -137 -87
l-112 -3 0 -40 0 -40 85 -3 c47 -2 200 2 340 8 140 7 413 14 605 17 193 2 388
8 435 11 91 8 99 14 86 68 l-6 24 -158 -2 -157 -3 -5 175 c-3 112 -10 183 -18
197 -6 12 -12 31 -12 43 0 19 -13 51 -41 100 -5 8 -12 22 -16 30 -19 42 -82
110 -145 157 -39 29 -74 53 -78 53 -5 0 -10 7 -14 15 -3 10 28 48 89 110 95
94 143 160 182 245 56 123 78 213 78 325 l0 80 -30 2 c-16 1 -36 0 -42 -3z
m-376 -902 c-2 -61 1 -71 31 -113 17 -26 32 -55 32 -65 1 -11 7 -30 15 -44 8
-14 15 -50 15 -80 1 -30 5 -64 9 -75 13 -33 21 34 21 176 0 134 -16 211 -48
235 -11 8 -12 13 -3 18 6 4 14 0 17 -8 3 -9 11 -16 18 -16 16 0 98 -77 132
-124 32 -44 46 -79 74 -185 24 -91 28 -242 6 -260 -9 -8 -46 -11 -103 -9 -86
3 -88 4 -91 28 -9 82 -22 85 -53 14 l-18 -44 -248 2 -248 3 -3 43 c-2 25 3 56
12 74 9 17 16 38 16 46 0 20 53 113 103 182 45 61 95 111 165 167 26 20 52 42
57 48 24 25 80 63 87 59 4 -3 7 -35 5 -72z"/>
<path d="M3455 1718 c-3 -7 -4 -229 -3 -493 l3 -480 39 -3 c22 -2 50 -1 64 3
21 5 23 10 19 34 -3 16 -3 31 0 34 8 8 41 -10 72 -40 46 -42 146 -61 223 -43
163 40 259 228 205 406 -27 89 -56 128 -130 176 -45 29 -54 31 -135 30 -92 -1
-138 -16 -189 -64 -15 -14 -27 -18 -33 -12 -5 5 -11 107 -12 234 l-3 225 -58
3 c-40 2 -59 -1 -62 -10z m393 -488 c71 -37 100 -77 110 -154 13 -102 -15
-179 -85 -223 -53 -35 -147 -32 -199 6 -82 60 -88 72 -88 169 0 117 24 156
124 204 48 22 92 22 138 -2z"/>
<path d="M4220 1720 c0 -5 0 -224 0 -485 0 -261 0 -480 0 -485 0 -7 22 -10 58
-8 l57 3 0 490 0 490 -57 3 c-36 2 -58 -1 -58 -8z"/>
<path d="M2153 1342 c-29 -2 -56 -9 -63 -17 -7 -8 -18 -15 -25 -15 -16 0 -78
-68 -102 -112 -31 -57 -43 -144 -31 -223 6 -38 17 -77 24 -86 8 -8 14 -23 14
-31 0 -16 73 -89 106 -105 10 -6 46 -15 79 -22 81 -17 165 3 235 54 l50 36 2
-188 3 -188 60 0 60 0 3 434 c1 312 -1 438 -9 447 -14 18 -93 18 -107 1 -6 -6
-12 -26 -14 -43 l-3 -32 -65 43 c-69 45 -108 53 -217 47z m144 -108 c73 -24
116 -72 132 -144 11 -50 11 -69 1 -108 -28 -102 -92 -152 -194 -152 -65 0 -65
0 -123 54 l-57 53 -1 89 c0 83 2 92 30 133 17 24 37 48 45 52 87 44 100 45
167 23z"/>
<path d="M2725 1330 c-4 -6 -7 -101 -6 -211 0 -232 7 -256 90 -332 42 -37 58
-44 123 -56 61 -11 86 -11 134 0 32 7 66 18 75 26 8 7 20 13 27 13 22 0 80 83
101 144 18 54 21 86 21 232 0 119 -4 174 -12 182 -15 15 -94 16 -104 1 -3 -6
-6 -77 -6 -158 1 -195 -15 -261 -77 -308 -79 -61 -178 -40 -229 48 -20 35 -22
51 -22 221 0 130 -4 188 -12 196 -15 15 -94 16 -103 2z"/>
<path d="M4472 1328 c-8 -10 -7 -21 2 -43 8 -17 28 -66 46 -110 39 -96 58
-141 76 -178 8 -16 14 -37 14 -47 0 -9 7 -23 15 -30 8 -7 15 -21 15 -32 0 -11
6 -32 14 -46 7 -15 22 -44 32 -64 l18 -38 -33 -67 c-18 -38 -40 -84 -48 -103
-8 -19 -22 -47 -29 -62 -8 -14 -14 -36 -14 -47 0 -19 6 -21 54 -21 l54 0 35
72 c64 133 97 208 97 215 0 5 13 36 30 71 16 34 44 90 60 125 17 34 30 65 30
70 0 7 10 30 100 220 23 49 40 96 38 105 -2 13 -16 18 -50 20 -41 3 -48 0 -67
-27 -12 -16 -21 -34 -21 -40 0 -6 -13 -39 -29 -74 -16 -34 -37 -82 -46 -107
-10 -25 -24 -61 -33 -80 -27 -61 -41 -94 -46 -112 -12 -39 -33 -11 -71 92 -9
25 -23 58 -31 73 -8 16 -14 36 -14 46 0 9 -7 26 -15 37 -8 10 -15 27 -15 36 0
9 -6 29 -14 45 -7 15 -22 46 -32 68 -18 37 -22 40 -65 43 -29 2 -50 -2 -57
-10z"/>
</g>
</svg>
